<svg id="Layer_1" data-name="Layer 1" xmlns="http://www.w3.org/2000/svg" viewBox="0 0 432 97.67"><defs><style>.cls-1{fill:#28b781;}</style></defs><title>SF_logo</title><path class="cls-1" d="M45,33.57a2.25,2.25,0,0,0-3.17-.22l-1.27,1.11a64.62,64.62,0,0,0-2.86-8.63l2.89-2.59a2.25,2.25,0,1,0-3-3.35l-1.8,1.62A108.69,108.69,0,0,0,22.7.81L22.64.75A2.16,2.16,0,0,0,22.37.5l0,0a2.23,2.23,0,0,0-2.71,0l0,0a2.16,2.16,0,0,0-.27.25l-.06.06C18.46,1.75,0,24.15,0,45,0,62.76,13.38,66.81,18.73,67.72v27.7a2.25,2.25,0,1,0,4.49,0V67.72C28.58,66.81,42,62.76,42,45a37.85,37.85,0,0,0-.4-5.4l3.23-2.81A2.24,2.24,0,0,0,45,33.57Zm-8.31,4.26L23.22,49.56V38.77l.14-.08L34.1,29.05A54.37,54.37,0,0,1,36.69,37.83Zm-13.47-5V9a103.78,103.78,0,0,1,9.05,15.64ZM4.49,45C4.49,31.49,13.37,16.72,18.73,9V63.2C14.16,62.34,4.49,58.88,4.49,45Zm33,0c0,13.84-9.67,17.35-14.24,18.24v-7.7l.12-.07,14-12.23C37.41,43.78,37.46,44.37,37.46,45Z"/><path class="cls-1" d="M67.58,71.68l3.84-4.53a14.62,14.62,0,0,0,9.7,4.24c4.18,0,6.48-1.9,6.48-4.8,0-3.06-2.4-4-5.78-5.47l-5.08-2.21c-3.67-1.52-7.52-4.42-7.52-9.86,0-5.93,5.23-10.49,12.49-10.49A16.36,16.36,0,0,1,93.18,43.3l-3.39,4.19a12,12,0,0,0-8.08-3.2c-3.53,0-5.83,1.65-5.83,4.37,0,2.93,2.84,4,5.92,5.27l5,2.1c4.42,1.85,7.52,4.65,7.52,10,0,6-5,11.06-13.36,11.06A19.16,19.16,0,0,1,67.58,71.68Z"/><path class="cls-1" d="M105.92,66V48.5h6.56V65.18c0,4.6,1.32,6.33,4.34,6.33,2.46,0,4.08-1.14,6.19-3.87V48.5h6.55V76.44h-5.37l-.5-4.11h-.18c-2.46,2.91-5.16,4.8-9,4.8C108.54,77.13,105.92,73.08,105.92,66Z"/><path class="cls-1" d="M141.74,62.5c0-9.31,6.58-14.68,14-14.68A12,12,0,0,1,163.93,51l-3.19,4.26a6.84,6.84,0,0,0-4.64-2c-4.5,0-7.62,3.73-7.62,9.33s3.07,9.28,7.42,9.28a9.23,9.23,0,0,0,5.78-2.41l2.66,4.32a13.82,13.82,0,0,1-9.13,3.44C147.59,77.13,141.74,71.76,141.74,62.5Z"/><path class="cls-1" d="M172.33,62.5c0-9.31,6.57-14.68,14-14.68A12,12,0,0,1,194.51,51l-3.18,4.26a6.84,6.84,0,0,0-4.64-2c-4.51,0-7.63,3.73-7.63,9.33s3.08,9.28,7.42,9.28a9.18,9.18,0,0,0,5.78-2.41l2.66,4.32a13.79,13.79,0,0,1-9.12,3.44C178.18,77.13,172.33,71.76,172.33,62.5Z"/><path class="cls-1" d="M202.91,62.5c0-9.08,6.31-14.68,12.88-14.68,7.56,0,11.54,5.46,11.54,13.27a16.65,16.65,0,0,1-.29,3.18H209.31c.54,5,3.73,7.78,8.23,7.78A12,12,0,0,0,224,70l2.23,4.07a17.32,17.32,0,0,1-9.58,3C209,77.13,202.91,71.71,202.91,62.5Zm18.75-2.69c0-4.3-1.91-6.92-5.73-6.92-3.26,0-6.12,2.44-6.69,6.92Z"/><path class="cls-1" d="M236.5,73.24l3.05-4.17c2.48,1.94,4.88,3.12,7.71,3.12,3.05,0,4.49-1.43,4.49-3.35,0-2.34-3-3.39-6-4.52-3.66-1.38-7.85-3.48-7.85-8.15,0-4.85,3.91-8.35,10.17-8.35a15,15,0,0,1,9.28,3.35l-3,4a10.45,10.45,0,0,0-6.12-2.43c-2.81,0-4.14,1.34-4.14,3.09,0,2.21,2.82,3,5.85,4.17,3.77,1.41,8,3.23,8,8.44,0,4.8-3.8,8.67-10.86,8.67A17.49,17.49,0,0,1,236.5,73.24Z"/><path class="cls-1" d="M266.72,73.24l3-4.17c2.48,1.94,4.88,3.12,7.72,3.12,3.05,0,4.48-1.43,4.48-3.35,0-2.34-3-3.39-6-4.52-3.66-1.38-7.85-3.48-7.85-8.15,0-4.85,3.92-8.35,10.17-8.35a15,15,0,0,1,9.29,3.35l-3,4a10.42,10.42,0,0,0-6.12-2.43c-2.81,0-4.14,1.34-4.14,3.09,0,2.21,2.82,3,5.85,4.17,3.77,1.41,8,3.23,8,8.44,0,4.8-3.8,8.67-10.86,8.67A17.49,17.49,0,0,1,266.72,73.24Z"/><path class="cls-1" d="M300.29,39.24h22.48v5.55H306.89V55.35H320.4V60.9H306.89V76.44h-6.6Z"/><path class="cls-1" d="M333.06,66V48.5h6.55V65.18c0,4.6,1.32,6.33,4.35,6.33,2.45,0,4.07-1.14,6.19-3.87V48.5h6.55V76.44h-5.37l-.5-4.11h-.18c-2.46,2.91-5.17,4.8-9,4.8C335.67,77.13,333.06,73.08,333.06,66Z"/><path class="cls-1" d="M370.72,48.5h5.37l.5,3.78h.18c2.51-2.43,5.35-4.46,9.17-4.46,6,0,8.6,4,8.6,11.1V76.44H388V59.77c0-4.6-1.32-6.33-4.34-6.33-2.46,0-4.08,1.21-6.38,3.48V76.44h-6.55Z"/><path class="cls-1" d="M406.54,62.5c0-9.11,5.71-14.68,11.83-14.68,3.16,0,5.17,1.18,7.33,3.07l-.25-4.5V36.26H432V76.44h-5.37l-.5-3H426A11.71,11.71,0,0,1,418,77.13C411,77.13,406.54,71.71,406.54,62.5Zm18.91,6.07v-13a8.23,8.23,0,0,0-5.69-2.32c-3.55,0-6.49,3.36-6.49,9.19,0,6.07,2.32,9.28,6.35,9.28C421.78,71.71,423.6,70.76,425.45,68.57Z"/></svg>